<svg version="1.1" id="Layer_1" xmlns="http://www.w3.org/2000/svg" xmlns:xlink="http://www.w3.org/1999/xlink" x="0px" y="0px"
	 width="100%" viewBox="0 0 496 496" enable-background="new 0 0 496 496" xml:space="preserve">
<path fill="#000000" opacity="1.000000" stroke="none" 
	d="
M201.593445,184.544312 
	C197.958649,204.677719 194.490921,224.414597 190.595535,244.396530 
	C194.740906,240.395081 198.808441,236.308624 203.055649,232.418350 
	C206.615616,229.157578 210.340744,226.071060 214.084747,223.020325 
	C215.518829,221.851791 217.518799,220.720016 218.939407,222.582703 
	C220.597336,224.756561 217.906021,225.143860 216.828400,226.144073 
	C213.110428,229.595001 211.413742,234.081497 210.521286,238.900040 
	C210.158920,240.856552 210.968063,242.735352 212.957535,243.318268 
	C215.186035,243.971252 216.239334,242.102707 217.050201,240.451675 
	C218.234558,238.040192 217.918823,235.595917 216.747009,233.240112 
	C215.071594,229.871948 216.490631,228.638535 219.847198,228.662567 
	C223.555786,228.689117 227.083786,227.756210 230.587830,226.637634 
	C234.288681,225.456253 237.493515,223.837906 239.951492,220.506912 
	C242.331818,217.281128 245.833298,215.117081 249.634827,213.653442 
	C255.706329,211.315796 259.178619,212.650436 263.933563,219.130417 
	C266.242279,218.772079 267.293854,216.600250 269.047424,215.436066 
	C270.080231,214.750381 271.127625,214.322342 272.309875,214.913254 
	C273.622772,215.569458 273.605591,216.866760 273.343994,217.972153 
	C272.580200,221.199661 271.711975,224.406372 270.767212,227.586334 
	C268.785309,234.257095 266.728271,240.905548 265.169647,247.856750 
	C273.024536,239.054886 283.845978,233.398544 289.952423,223.001556 
	C290.638245,221.833832 291.688080,220.713821 293.206604,221.557083 
	C294.713043,222.393585 294.140594,223.824478 293.784241,225.120682 
	C292.419220,230.085556 291.061798,235.052582 289.725006,240.025101 
	C289.280579,241.678223 288.975555,243.446426 290.562225,244.619781 
	C292.246216,245.865097 293.920624,244.758484 295.106140,243.742371 
	C303.694824,236.381119 312.142487,228.868042 316.648926,218.069855 
	C316.905243,217.455643 317.104309,216.808807 317.430359,216.234055 
	C318.368103,214.581070 318.921417,211.766098 321.445984,212.787109 
	C324.249664,213.920990 322.218872,216.174194 321.600647,217.892288 
	C319.866211,222.712570 318.045990,227.501968 317.145233,232.892075 
	C319.482117,230.301682 321.728455,227.621368 324.184296,225.149185 
	C326.171356,223.148941 328.357849,220.895584 331.546906,222.002579 
	C334.411743,222.997025 334.140625,225.971512 334.709534,228.339050 
	C334.826324,228.825012 334.921173,229.317001 335.056915,229.797501 
	C335.748230,232.244720 334.137115,236.021957 337.185608,236.934525 
	C340.309998,237.869781 342.364594,234.554382 344.492676,232.556458 
	C347.505829,229.727554 350.911560,227.234436 352.604553,223.202972 
	C353.110291,221.998764 354.199554,220.852753 355.774780,221.543030 
	C357.384491,222.248413 356.996185,223.620087 356.609344,224.976883 
	C355.242249,229.771530 353.876068,234.568192 352.638824,239.397217 
	C352.189453,241.151199 351.712372,243.262466 353.439209,244.507767 
	C355.486786,245.984375 357.300629,244.363052 358.804688,243.174698 
	C363.796173,239.230942 368.054932,234.547592 371.971649,229.546249 
	C372.689911,228.629105 373.404938,227.681000 374.269287,226.913681 
	C375.430573,225.882767 376.602905,223.957794 378.402252,225.657639 
	C379.872223,227.046295 378.555695,228.461365 377.667938,229.604523 
	C372.961487,235.665237 368.096710,241.614517 361.997009,246.341095 
	C358.960968,248.693665 355.351349,251.200256 351.504456,249.008987 
	C347.507874,246.732437 347.308624,242.556854 348.449524,238.358444 
	C348.610992,237.764313 348.471863,237.088486 348.471863,236.309998 
	C345.705994,236.688110 344.398102,238.847351 342.507812,240.083481 
	C336.881378,243.762756 333.344208,242.336349 331.317993,235.878433 
	C330.434418,233.062302 331.527008,229.826920 329.120667,226.903900 
	C323.052979,231.966919 319.140442,238.475693 315.346680,245.070129 
	C314.267548,246.945862 313.364166,248.923950 312.259735,250.783539 
	C311.473022,252.108124 310.382477,253.343552 308.629486,252.686050 
	C306.990234,252.071198 306.529572,250.492279 306.803345,248.948380 
	C307.468506,245.197403 308.328552,241.481003 309.270203,236.986420 
	C306.350220,239.755920 303.882385,242.226242 301.267181,244.529144 
	C299.653015,245.950516 297.943481,247.364075 296.052612,248.352173 
	C289.855743,251.590515 285.493256,248.893463 285.436127,241.938766 
	C285.421326,240.136414 285.433899,238.333817 285.433899,235.548416 
	C273.959320,246.120712 261.765625,254.912277 257.139740,270.264008 
	C254.693558,278.382050 251.589966,286.334198 246.990799,293.562378 
	C245.925598,295.236481 244.800140,296.974945 243.336456,298.270264 
	C240.719193,300.586487 238.265717,299.631866 237.648193,296.181824 
	C237.109955,293.174713 237.608337,290.255859 238.633545,287.364319 
	C241.397614,279.568420 245.661713,272.605255 250.810974,266.248535 
	C255.093735,260.961517 258.092316,255.243973 259.833893,248.656952 
	C261.995056,240.482986 264.663879,232.443237 267.521393,222.996811 
	C262.202759,227.664917 257.883270,231.396515 253.633240,235.205597 
	C250.387009,238.115067 246.852509,240.625000 243.021072,242.650284 
	C236.657669,246.013947 232.542328,243.398087 232.770203,236.248688 
	C232.822418,234.610519 233.084763,232.979050 233.310242,230.753876 
	C230.186584,231.430695 227.333603,231.981827 224.517517,232.681412 
	C222.466614,233.190903 222.213867,234.891403 222.334625,236.645920 
	C222.540787,239.641464 221.495514,242.258148 219.761429,244.553696 
	C217.835388,247.103348 215.174316,248.551895 211.929474,247.804321 
	C208.689102,247.057755 206.807388,244.752869 206.402786,241.450958 
	C206.205978,239.844849 206.368759,238.194687 206.368759,235.241302 
	C198.207870,244.548080 187.642548,250.285019 184.377472,262.507843 
	C182.398148,269.917480 179.087875,276.894073 174.156555,282.923859 
	C173.118973,284.192566 171.881973,285.364655 170.542038,286.303070 
	C168.817627,287.510712 166.787720,288.011902 165.021667,286.434845 
	C163.451614,285.032806 163.699203,283.194580 164.343094,281.338348 
	C166.277847,275.760803 169.012802,270.519775 172.930115,266.209412 
	C181.055115,257.269226 185.107315,246.744019 187.414658,235.060181 
	C190.245590,220.725174 193.153961,206.410736 194.897263,191.568695 
	C193.677048,193.685715 192.465881,195.808029 191.235138,197.918900 
	C183.936401,210.437225 176.781540,223.048248 167.831787,234.510117 
	C165.130798,237.969254 161.893860,240.856796 158.006897,242.876968 
	C152.824631,245.570358 149.504776,243.918564 147.758286,238.394974 
	C146.122162,233.220474 147.022858,228.073151 147.898804,223.069153 
	C150.918884,205.816299 157.093460,189.728165 166.996109,175.194458 
	C168.479050,173.017975 169.812408,170.162247 173.356018,170.802353 
	C174.587219,173.242310 172.636749,174.416092 171.717209,175.777161 
	C161.002167,191.637314 154.189926,209.013977 151.597107,227.964417 
	C151.076080,231.772507 149.738663,237.082397 153.751846,238.907547 
	C157.004883,240.387039 160.251648,236.269775 162.656036,233.635971 
	C171.255325,224.216156 177.222992,212.969299 183.705658,202.119385 
	C188.143417,194.692001 191.899857,186.859955 196.073013,179.270477 
	C197.200989,177.219070 197.970154,173.784882 201.185776,174.962372 
	C204.051483,176.011765 202.393295,179.016098 202.286407,181.206787 
	C202.238434,182.190292 201.902023,183.159729 201.593445,184.544312 
M258.596710,223.828125 
	C259.043243,220.327698 258.750183,217.376007 254.127991,217.298752 
	C245.420380,217.153214 235.539001,230.713898 238.415894,239.720947 
	C246.367706,236.242340 252.548355,230.643051 258.596710,223.828125 
M248.867172,279.660767 
	C249.369553,278.359467 249.871918,277.058197 250.374283,275.756927 
	C246.953812,280.374023 243.933929,285.026855 242.782227,290.535706 
	C245.473587,287.533020 246.918076,283.857452 248.867172,279.660767 
M173.522354,272.993652 
	C172.161499,275.383240 170.800644,277.772858 169.439774,280.162476 
	C173.852570,276.581207 176.014740,271.724335 177.614166,266.539948 
	C176.384842,268.495605 175.155502,270.451233 173.522354,272.993652 
z"/>
<path fill="#FF0000" opacity="1.000000" stroke="none" 
	d="
M416.280914,197.897186 
	C428.142426,196.815186 430.677399,198.198898 440.401459,210.966553 
	C444.597595,202.883163 450.848267,197.781616 459.942841,196.284958 
	C471.771484,194.338364 480.026184,202.533936 477.592224,214.184677 
	C474.941010,226.875427 467.153748,236.692749 459.204590,246.337051 
	C454.023529,252.622986 448.387787,258.532166 443.079376,264.716278 
	C441.259796,266.836090 439.863831,266.574615 438.231384,264.667480 
	C428.166565,252.908920 417.492645,241.669037 408.097382,229.340942 
	C404.644623,224.810333 402.861908,219.525970 403.095001,213.957352 
	C403.438751,205.744003 408.048920,200.443222 416.280914,197.897186 
z"/>
<path fill="#000000" opacity="1.000000" stroke="none" 
	d="
M292.773804,216.036636 
	C291.393219,213.237900 292.337708,211.939972 294.952789,211.861511 
	C296.541748,211.813828 297.516663,212.888550 297.252594,214.390427 
	C296.820129,216.850494 295.373047,217.751007 292.773804,216.036636 
z"/>
<path fill="#000000" opacity="1.000000" stroke="none" 
	d="
M358.666321,212.096466 
	C360.957825,214.329483 360.263123,215.919220 357.939819,216.811356 
	C356.463074,217.378418 355.259674,216.406540 355.026001,214.938309 
	C354.638580,212.503967 356.050476,211.678421 358.666321,212.096466 
z"/>
</svg>